<svg width="519" height="435" viewBox="0 0 519 435" fill="none" xmlns="http://www.w3.org/2000/svg">
<path fill-rule="evenodd" clip-rule="evenodd" d="M302.748 231.326C306.004 221.516 307.947 210.608 308.309 199.022H256.3V228.104C274.513 228.293 289.916 229.433 302.748 231.326ZM300.177 238.332C288.064 236.59 273.516 235.527 256.3 235.375V278.738C274.422 276.579 290.822 261.015 300.177 238.332ZM201.177 231.326C214.009 229.433 229.418 228.293 247.625 228.104V199.022H195.622C195.984 210.608 197.927 221.516 201.177 231.326ZM203.754 238.332C213.109 261.015 229.509 276.579 247.625 278.738V235.375C230.409 235.527 215.861 236.59 203.754 238.332ZM167.788 240.264C170.948 238.783 175.286 237.155 180.892 235.565C184.505 234.545 188.39 233.633 192.637 232.803C189.296 222.427 187.308 211.026 186.946 199.022H152.289C153.059 214.168 158.659 228.256 167.788 240.264ZM172.806 246.32C184.777 259.311 201.177 269.307 220.108 274.647C209.672 266.469 201.041 254.351 195.169 239.77C190.967 240.563 187.173 241.474 183.65 242.457C179.222 243.71 175.648 244.996 172.806 246.32ZM336.143 240.264C345.266 228.256 350.872 214.168 351.637 199.022H316.985C316.622 211.026 314.635 222.427 311.288 232.803C315.535 233.633 319.426 234.545 323.039 235.565C328.639 237.155 332.977 238.783 336.143 240.264ZM331.125 246.32C328.277 244.996 324.709 243.71 320.281 242.457C316.758 241.474 312.964 240.563 308.762 239.77C302.884 254.351 294.254 266.469 283.817 274.647C302.748 269.307 319.154 259.311 331.125 246.32ZM302.748 159.447C289.916 161.34 274.513 162.475 256.3 162.665V191.751H308.309C307.947 180.16 306.004 169.253 302.748 159.447ZM300.177 152.441C290.822 129.758 274.422 114.19 256.3 112.035V155.393C273.516 155.241 288.064 154.183 300.177 152.441ZM201.177 159.447C197.927 169.253 195.984 180.16 195.622 191.751H247.625V162.665C229.418 162.475 214.009 161.34 201.177 159.447ZM203.754 152.441C215.861 154.183 230.409 155.241 247.625 155.393V112.035C229.509 114.19 213.109 129.758 203.754 152.441ZM167.788 150.509C158.659 162.513 153.059 176.6 152.289 191.751H186.946C187.308 179.747 189.296 168.346 192.637 157.97C188.39 157.135 184.505 156.229 180.892 155.203C175.286 153.613 170.948 151.985 167.788 150.509ZM172.806 144.448C175.648 145.777 179.222 147.063 183.65 148.312C187.173 149.299 190.967 150.205 195.169 151.003C201.041 136.422 209.672 124.304 220.108 116.121C201.177 121.461 184.777 131.462 172.806 144.448ZM336.143 150.509C332.977 151.985 328.639 153.613 323.039 155.203C319.426 156.229 315.535 157.135 311.288 157.97C314.635 168.346 316.622 179.747 316.985 191.751H351.637C350.872 176.6 345.266 162.513 336.143 150.509ZM331.125 144.448C319.154 131.462 302.748 121.461 283.817 116.121C294.254 124.304 302.884 136.422 308.762 151.003C312.964 150.205 316.758 149.299 320.281 148.312C324.709 147.063 328.277 145.777 331.125 144.448ZM251.963 286.276C192.099 286.276 143.522 245.566 143.522 195.387C143.522 145.207 192.099 104.497 251.963 104.497C311.832 104.497 360.403 145.207 360.403 195.387C360.403 245.566 311.832 286.276 251.963 286.276Z" fill="#03E0B8"/>
<path d="M252.554 286.219C245.526 286.219 250.445 224.902 251.37 220.149C243.677 204.394 249.094 182.816 251.289 180.727C248.153 180.392 245.855 178.112 245.877 175.267C245.899 172.099 248.964 169.43 252.613 169.299C256.268 169.43 259.247 172.099 259.268 175.267C259.29 178.112 256.992 180.392 253.857 180.727C256.057 182.816 261.474 204.394 253.776 220.149C254.7 224.902 257.836 286.219 252.554 286.219Z" fill="black"/>
<path d="M247.655 191.925L163.182 186.243C148.002 186.732 147.461 200.099 160.685 201.499L231.961 200.888C236.626 195.382 241.611 192.595 247.444 193.475L247.655 191.925Z" fill="black"/>
<path d="M249.424 183.4L174.596 150.408C160.496 145.94 154.209 158.324 165.697 163.93L231.167 186.477C237.816 182.82 243.823 182.068 248.775 184.787L249.424 183.4Z" fill="black"/>
<path d="M258.017 192.063L342.473 186.243C357.651 186.744 358.192 200.437 344.976 201.871L273.708 201.245C269.044 195.605 264.06 192.75 258.228 193.651L258.017 192.063Z" fill="black"/>
<path d="M255.7 183.4L330.528 150.408C344.628 145.94 350.915 158.324 339.427 163.93L273.957 186.477C267.307 182.82 261.301 182.068 256.349 184.787L255.7 183.4Z" fill="black"/>
<path d="M381.626 194.413C381.626 253.31 324.393 302.201 252.251 302.201C180.109 302.201 122.877 253.31 122.877 194.413C122.877 135.516 180.109 86.6257 252.251 86.6257C324.393 86.6257 381.626 135.516 381.626 194.413Z" stroke="black" stroke-width="8"/>
<path d="M102.801 322.162C104.721 322.162 106.497 322.434 108.129 322.978C109.761 323.522 111.201 324.226 112.449 325.09C113.697 325.954 114.673 326.882 115.377 327.874L112.017 331.378C110.737 330.162 109.329 329.17 107.793 328.402C106.257 327.602 104.593 327.202 102.801 327.202C100.529 327.202 98.4651 327.73 96.6091 328.786C94.7851 329.842 93.3451 331.282 92.2891 333.106C91.2331 334.898 90.7051 336.946 90.7051 339.25C90.7051 341.522 91.2651 343.586 92.3851 345.442C93.5051 347.298 94.9931 348.77 96.8491 349.858C98.7371 350.946 100.785 351.49 102.993 351.49C104.593 351.49 106.097 351.186 107.505 350.578C108.913 349.938 110.049 349.074 110.913 347.986C111.809 346.898 112.257 345.65 112.257 344.242C112.257 344.082 112.257 343.986 112.257 343.954H102.705V338.818H117.585C117.649 339.298 117.697 339.778 117.729 340.258C117.793 340.738 117.825 341.218 117.825 341.698C117.825 343.458 117.553 345.186 117.009 346.882C116.497 348.578 115.681 350.05 114.561 351.298C113.281 352.898 111.617 354.178 109.569 355.138C107.553 356.066 105.313 356.53 102.849 356.53C100.417 356.53 98.1451 356.098 96.0331 355.234C93.9211 354.338 92.0651 353.106 90.4651 351.538C88.8651 349.97 87.6171 348.146 86.7211 346.066C85.8571 343.954 85.4251 341.682 85.4251 339.25C85.4251 336.818 85.8571 334.578 86.7211 332.53C87.6171 330.45 88.8491 328.642 90.4171 327.106C92.0171 325.538 93.8731 324.322 95.9851 323.458C98.0971 322.594 100.369 322.162 102.801 322.162ZM123.327 356.05V320.53H128.271V356.05H123.327ZM159.002 343.426C159.002 345.986 158.426 348.258 157.274 350.242C156.154 352.194 154.618 353.73 152.666 354.85C150.746 355.97 148.586 356.53 146.186 356.53C143.786 356.53 141.61 355.97 139.658 354.85C137.706 353.73 136.154 352.194 135.002 350.242C133.882 348.258 133.322 345.986 133.322 343.426C133.322 340.866 133.882 338.61 135.002 336.658C136.154 334.674 137.706 333.122 139.658 332.002C141.61 330.882 143.786 330.322 146.186 330.322C148.586 330.322 150.746 330.882 152.666 332.002C154.618 333.122 156.154 334.674 157.274 336.658C158.426 338.61 159.002 340.866 159.002 343.426ZM153.962 343.426C153.994 341.73 153.658 340.242 152.954 338.962C152.282 337.65 151.354 336.642 150.17 335.938C148.986 335.202 147.658 334.834 146.186 334.834C144.714 334.834 143.37 335.202 142.154 335.938C140.97 336.642 140.026 337.65 139.322 338.962C138.65 340.242 138.33 341.73 138.362 343.426C138.33 345.09 138.65 346.578 139.322 347.89C140.026 349.17 140.97 350.178 142.154 350.914C143.37 351.65 144.714 352.018 146.186 352.018C147.658 352.018 148.986 351.65 150.17 350.914C151.354 350.178 152.282 349.17 152.954 347.89C153.658 346.578 153.994 345.09 153.962 343.426ZM177.494 330.322C179.734 330.322 181.734 330.882 183.494 332.002C185.286 333.09 186.694 334.626 187.718 336.61C188.742 338.562 189.254 340.818 189.254 343.378C189.254 345.938 188.742 348.21 187.718 350.194C186.694 352.178 185.302 353.73 183.542 354.85C181.782 355.97 179.814 356.53 177.638 356.53C175.846 356.53 174.214 356.146 172.742 355.378C171.302 354.578 170.166 353.682 169.334 352.69V355.906H164.39V320.53H169.334V334.498C170.07 333.442 171.174 332.482 172.646 331.618C174.118 330.754 175.734 330.322 177.494 330.322ZM176.822 334.834C175.318 334.834 173.974 335.202 172.79 335.938C171.638 336.674 170.726 337.698 170.054 339.01C169.414 340.29 169.094 341.746 169.094 343.378C169.094 345.01 169.414 346.482 170.054 347.794C170.726 349.074 171.638 350.098 172.79 350.866C173.974 351.634 175.318 352.018 176.822 352.018C178.326 352.018 179.654 351.634 180.806 350.866C181.958 350.098 182.854 349.074 183.494 347.794C184.166 346.482 184.502 345.01 184.502 343.378C184.502 341.746 184.166 340.29 183.494 339.01C182.854 337.698 181.958 336.674 180.806 335.938C179.654 335.202 178.326 334.834 176.822 334.834ZM216.272 352.738H216.224C215.2 353.73 213.792 354.61 212 355.378C210.208 356.146 208.336 356.53 206.384 356.53C203.76 356.53 201.44 355.986 199.424 354.898C197.44 353.778 195.888 352.258 194.768 350.338C193.648 348.386 193.088 346.178 193.088 343.714C193.088 340.898 193.68 338.498 194.864 336.514C196.048 334.498 197.616 332.962 199.568 331.906C201.52 330.818 203.648 330.274 205.952 330.274C208.064 330.274 209.984 330.802 211.712 331.858C213.44 332.882 214.816 334.306 215.84 336.13C216.864 337.954 217.376 340.082 217.376 342.514L217.328 344.626H198.032C198.32 346.898 199.248 348.706 200.816 350.05C202.416 351.362 204.432 352.018 206.864 352.018C208.624 352.018 210.048 351.698 211.136 351.058C212.224 350.386 213.12 349.746 213.824 349.138L216.272 352.738ZM205.952 334.834C204.064 334.834 202.416 335.282 201.008 336.178C199.6 337.042 198.672 338.546 198.224 340.69H212.336V340.354C212.24 339.266 211.872 338.306 211.232 337.474C210.624 336.642 209.856 336.002 208.928 335.554C208 335.074 207.008 334.834 205.952 334.834ZM238.698 345.922C240.01 347.81 241.37 349.282 242.778 350.338C244.218 351.362 246.074 351.874 248.346 351.874C249.434 351.874 250.474 351.698 251.466 351.346C252.458 350.994 253.274 350.482 253.914 349.81C254.554 349.138 254.874 348.338 254.874 347.41C254.874 345.81 254.186 344.562 252.81 343.666C251.466 342.77 249.562 342.082 247.098 341.602C243.962 340.962 241.466 339.858 239.61 338.29C237.754 336.69 236.826 334.386 236.826 331.378C236.826 329.458 237.354 327.794 238.41 326.386C239.498 324.978 240.922 323.89 242.682 323.122C244.442 322.354 246.346 321.97 248.394 321.97C251.05 321.97 253.338 322.482 255.258 323.506C257.178 324.53 258.682 325.986 259.77 327.874L256.122 331.474C255.258 330.034 254.17 328.866 252.858 327.97C251.546 327.074 250.01 326.626 248.25 326.626C246.49 326.626 245.002 327.042 243.786 327.874C242.602 328.674 242.01 329.794 242.01 331.234C242.01 332.866 242.634 334.066 243.882 334.834C245.162 335.57 246.842 336.162 248.922 336.61C250.81 336.994 252.602 337.586 254.298 338.386C255.994 339.186 257.37 340.226 258.426 341.506C259.514 342.754 260.058 344.274 260.058 346.066C260.058 349.266 258.97 351.81 256.794 353.698C254.618 355.586 251.626 356.53 247.818 356.53C245.226 356.53 242.858 356.018 240.714 354.994C238.602 353.97 236.746 352.306 235.146 350.002L238.698 345.922ZM266.155 356.05V320.53H271.099V342.13L282.475 330.85H289.147L277.339 341.938L289.483 356.05H283.147L273.835 345.202L271.099 347.794V356.05H266.155ZM296.748 325.378C295.628 325.378 294.796 325.09 294.252 324.514C293.708 323.938 293.436 323.186 293.436 322.258C293.436 321.458 293.708 320.738 294.252 320.098C294.796 319.458 295.628 319.138 296.748 319.138C297.868 319.138 298.7 319.426 299.244 320.002C299.788 320.578 300.06 321.33 300.06 322.258C300.06 323.058 299.788 323.778 299.244 324.418C298.7 325.058 297.868 325.378 296.748 325.378ZM299.292 356.05H294.348V330.85H299.292V356.05ZM319.612 330.418C321.692 330.418 323.356 330.898 324.604 331.858C325.852 332.786 326.748 334.066 327.292 335.698C327.74 334.898 328.396 334.098 329.26 333.298C330.124 332.466 331.132 331.778 332.284 331.234C333.436 330.69 334.668 330.418 335.98 330.418C338.156 330.418 339.852 330.898 341.068 331.858C342.284 332.786 343.132 334.05 343.612 335.65C344.124 337.218 344.38 338.978 344.38 340.93V356.05H339.388V341.218C339.388 339.362 339.036 337.858 338.332 336.706C337.628 335.554 336.3 334.978 334.348 334.978C332.492 334.978 330.956 335.57 329.74 336.754C328.556 337.906 327.964 339.314 327.964 340.978V356.05H322.972V341.122C322.972 339.33 322.588 337.858 321.82 336.706C321.052 335.554 319.788 334.978 318.028 334.978C316.812 334.978 315.724 335.25 314.764 335.794C313.804 336.338 313.052 337.058 312.508 337.954C311.964 338.818 311.692 339.794 311.692 340.882V356.05H306.7V330.85H311.692V334.882C312.46 333.73 313.532 332.706 314.908 331.81C316.316 330.882 317.884 330.418 319.612 330.418ZM363.815 330.418C365.895 330.418 367.559 330.898 368.807 331.858C370.055 332.786 370.951 334.066 371.495 335.698C371.943 334.898 372.599 334.098 373.463 333.298C374.327 332.466 375.335 331.778 376.487 331.234C377.639 330.69 378.871 330.418 380.183 330.418C382.359 330.418 384.055 330.898 385.271 331.858C386.487 332.786 387.335 334.05 387.815 335.65C388.327 337.218 388.583 338.978 388.583 340.93V356.05H383.591V341.218C383.591 339.362 383.239 337.858 382.535 336.706C381.831 335.554 380.503 334.978 378.551 334.978C376.695 334.978 375.159 335.57 373.943 336.754C372.759 337.906 372.167 339.314 372.167 340.978V356.05H367.175V341.122C367.175 339.33 366.791 337.858 366.023 336.706C365.255 335.554 363.991 334.978 362.231 334.978C361.015 334.978 359.927 335.25 358.967 335.794C358.007 336.338 357.255 337.058 356.711 337.954C356.167 338.818 355.895 339.794 355.895 340.882V356.05H350.903V330.85H355.895V334.882C356.663 333.73 357.735 332.706 359.111 331.81C360.519 330.882 362.087 330.418 363.815 330.418ZM416.85 352.738H416.802C415.778 353.73 414.37 354.61 412.578 355.378C410.786 356.146 408.914 356.53 406.962 356.53C404.338 356.53 402.018 355.986 400.002 354.898C398.018 353.778 396.466 352.258 395.346 350.338C394.226 348.386 393.666 346.178 393.666 343.714C393.666 340.898 394.258 338.498 395.442 336.514C396.626 334.498 398.194 332.962 400.146 331.906C402.098 330.818 404.226 330.274 406.53 330.274C408.642 330.274 410.562 330.802 412.29 331.858C414.018 332.882 415.394 334.306 416.418 336.13C417.442 337.954 417.954 340.082 417.954 342.514L417.906 344.626H398.61C398.898 346.898 399.826 348.706 401.394 350.05C402.994 351.362 405.01 352.018 407.442 352.018C409.202 352.018 410.626 351.698 411.714 351.058C412.802 350.386 413.698 349.746 414.402 349.138L416.85 352.738ZM406.53 334.834C404.642 334.834 402.994 335.282 401.586 336.178C400.178 337.042 399.25 338.546 398.802 340.69H412.914V340.354C412.818 339.266 412.45 338.306 411.81 337.474C411.202 336.642 410.434 336.002 409.506 335.554C408.578 335.074 407.586 334.834 406.53 334.834ZM437.439 336.178C437.119 336.018 436.719 335.89 436.239 335.794C435.791 335.666 435.311 335.602 434.799 335.602C433.775 335.602 432.767 335.874 431.775 336.418C430.783 336.93 429.951 337.682 429.279 338.674C428.639 339.634 428.319 340.786 428.319 342.13V356.05H423.327V330.85H428.319V335.602C429.023 334.066 430.079 332.802 431.487 331.81C432.927 330.818 434.431 330.322 435.999 330.322C437.183 330.322 438.095 330.482 438.735 330.802L437.439 336.178Z" fill="black"/>
</svg>
